<?xml version="1.0" encoding="utf-8"?>
<!-- Generator: Adobe Illustrator 18.1.0, SVG Export Plug-In . SVG Version: 6.00 Build 0)  -->
<svg version="1.1" id="Layer_1" xmlns="http://www.w3.org/2000/svg" xmlns:xlink="http://www.w3.org/1999/xlink" x="0px" y="0px"
	 viewBox="0 0 900 650" style="enable-background:new 0 0 900 650;" xml:space="preserve">
<style type="text/css">
	.st0{fill:#168C79;}
	.st1{fill:#6EBCA1;}
	.st2{fill:#E25B40;}
	.st3{fill:#BD3428;}
	.st4{enable-background:new    ;}
	.st5{fill:#63605E;}
	.st6{fill:none;}
	.st7{fill:#FFFFFF;}
	.st8{fill:#BD3128;}
</style>
<g>
	<path class="st0" d="M100.3,199.8c0,5.5-4.5,10-10,10H29.6c-5.5,0-10-4.5-10-10v-60.7c0-5.5,4.5-10,10-10h60.7c5.5,0,10,4.5,10,10
		V199.8z"/>
</g>
<g>
	<path class="st1" d="M327.2,199.8c0,5.5-4.5,10-10,10h-60.7c-5.5,0-10-4.5-10-10v-60.7c0-5.5,4.5-10,10-10h60.7c5.5,0,10,4.5,10,10
		V199.8z"/>
</g>
<g>
	<path class="st2" d="M554.2,199.8c0,5.5-4.5,10-10,10h-60.7c-5.5,0-10-4.5-10-10v-60.7c0-5.5,4.5-10,10-10h60.7c5.5,0,10,4.5,10,10
		V199.8z"/>
</g>
<g>
	<path class="st3" d="M771.1,199.8c0,5.5-4.5,10-10,10h-60.7c-5.5,0-10-4.5-10-10v-60.7c0-5.5,4.5-10,10-10h60.7c5.5,0,10,4.5,10,10
		V199.8z"/>
</g>
<g class="st4">
	<path class="st5" d="M26,61.5L21.9,74h-5.3l13.5-39.8h6.2L49.9,74h-5.5l-4.2-12.5H26z M39.1,57.5L35.2,46c-0.9-2.6-1.5-5-2.1-7.3
		H33c-0.6,2.4-1.2,4.8-2,7.2l-3.9,11.5H39.1z"/>
	<path class="st5" d="M58.7,38.6H46.6v-4.4h29.4v4.4H63.9V74h-5.2V38.6z"/>
	<path class="st5" d="M91.6,74l-13-39.8h5.5l6.2,19.6c1.7,5.4,3.2,10.2,4.2,14.9h0.1c1.1-4.6,2.8-9.6,4.5-14.8l6.7-19.6h5.5L97.2,74
		H91.6z"/>
	<path class="st5" d="M128.3,34.2h5.1v35.5h17V74h-22.1V34.2z"/>
	<path class="st5" d="M171.8,74l-0.4-3.6h-0.2c-1.6,2.2-4.7,4.2-8.7,4.2c-5.8,0-8.7-4.1-8.7-8.2c0-6.9,6.1-10.7,17.2-10.6v-0.6
		c0-2.4-0.6-6.6-6.5-6.6c-2.7,0-5.4,0.8-7.4,2.1l-1.2-3.4c2.4-1.5,5.8-2.5,9.4-2.5c8.7,0,10.9,6,10.9,11.7v10.7
		c0,2.5,0.1,4.9,0.5,6.8H171.8z M171,59.4c-5.7-0.1-12.1,0.9-12.1,6.4c0,3.4,2.2,5,4.9,5c3.7,0,6.1-2.4,6.9-4.8
		c0.2-0.5,0.3-1.1,0.3-1.7V59.4z"/>
	<path class="st5" d="M186,45.4l3.8,14.5c0.8,3.2,1.6,6.1,2.1,9.1h0.2c0.6-2.9,1.6-6,2.5-9l4.7-14.6h4.4l4.4,14.3
		c1.1,3.4,1.9,6.4,2.5,9.3h0.2c0.5-2.9,1.2-5.9,2.2-9.3l4.1-14.3h5.1L212.9,74h-4.7l-4.4-13.6c-1-3.2-1.8-6-2.5-9.4h-0.1
		c-0.7,3.4-1.6,6.4-2.6,9.4L194,74h-4.7l-8.6-28.6H186z"/>
	<path class="st5" d="M226.3,68.7c1.5,1,4.2,2.1,6.8,2.1c3.8,0,5.5-1.9,5.5-4.2c0-2.5-1.5-3.8-5.3-5.3c-5.1-1.8-7.6-4.7-7.6-8.1
		c0-4.6,3.7-8.4,9.9-8.4c2.9,0,5.4,0.8,7,1.8l-1.3,3.8c-1.1-0.7-3.2-1.7-5.8-1.7c-3.1,0-4.8,1.8-4.8,3.9c0,2.4,1.7,3.4,5.4,4.8
		c5,1.9,7.5,4.4,7.5,8.6c0,5-3.9,8.6-10.7,8.6c-3.1,0-6-0.8-8-1.9L226.3,68.7z"/>
	<path class="st5" d="M263,74V34.2h5.6l12.7,20.1c3,4.7,5.3,8.9,7.1,12.9l0.1-0.1c-0.5-5.3-0.6-10.1-0.6-16.3V34.2h4.8V74h-5.2
		l-12.6-20.2c-2.8-4.4-5.4-9-7.4-13.3l-0.2,0.1c0.3,5,0.4,9.8,0.4,16.4v17H263z"/>
	<path class="st5" d="M317.5,74l-0.4-3.6h-0.2c-1.6,2.2-4.7,4.2-8.7,4.2c-5.8,0-8.7-4.1-8.7-8.2c0-6.9,6.1-10.7,17.2-10.6v-0.6
		c0-2.4-0.6-6.6-6.5-6.6c-2.7,0-5.4,0.8-7.4,2.1l-1.2-3.4c2.4-1.5,5.8-2.5,9.4-2.5c8.7,0,10.9,6,10.9,11.7v10.7
		c0,2.5,0.1,4.9,0.5,6.8H317.5z M316.7,59.4c-5.7-0.1-12.1,0.9-12.1,6.4c0,3.4,2.2,5,4.9,5c3.7,0,6.1-2.4,6.9-4.8
		c0.2-0.5,0.3-1.1,0.3-1.7V59.4z"/>
	<path class="st5" d="M336.1,37.2v8.2h7.4v4h-7.4v15.4c0,3.5,1,5.5,3.9,5.5c1.4,0,2.4-0.2,3-0.4l0.2,3.9c-1,0.4-2.6,0.7-4.6,0.7
		c-2.4,0-4.4-0.8-5.6-2.2c-1.5-1.5-2-4.1-2-7.4V49.4h-4.4v-4h4.4v-6.8L336.1,37.2z"/>
	<path class="st5" d="M355.2,37.4c0.1,1.8-1.2,3.2-3.3,3.2c-1.8,0-3.1-1.4-3.1-3.2c0-1.8,1.4-3.2,3.2-3.2
		C353.9,34.2,355.2,35.6,355.2,37.4z M349.4,74V45.4h5.2V74H349.4z"/>
	<path class="st5" d="M389.1,59.5c0,10.6-7.3,15.2-14.2,15.2c-7.7,0-13.7-5.7-13.7-14.7c0-9.6,6.3-15.2,14.2-15.2
		C383.5,44.8,389.1,50.7,389.1,59.5z M366.4,59.8c0,6.3,3.6,11,8.7,11c5,0,8.7-4.7,8.7-11.1c0-4.8-2.4-11-8.6-11
		S366.4,54.3,366.4,59.8z"/>
	<path class="st5" d="M395.6,53.2c0-3-0.1-5.4-0.2-7.7h4.6l0.3,4.7h0.1c1.4-2.7,4.7-5.4,9.4-5.4c4,0,10.1,2.4,10.1,12.2V74h-5.2
		V57.5c0-4.6-1.7-8.4-6.6-8.4c-3.4,0-6.1,2.4-7,5.3c-0.2,0.6-0.4,1.5-0.4,2.4V74h-5.2V53.2z"/>
	<path class="st5" d="M429.6,45.4l3.8,14.5c0.8,3.2,1.6,6.1,2.1,9.1h0.2c0.6-2.9,1.6-6,2.5-9l4.7-14.6h4.4l4.4,14.3
		c1.1,3.4,1.9,6.4,2.5,9.3h0.2c0.5-2.9,1.2-5.9,2.2-9.3l4.1-14.3h5.1L456.6,74h-4.7l-4.4-13.6c-1-3.2-1.8-6-2.5-9.4h-0.1
		c-0.7,3.4-1.6,6.4-2.6,9.4L437.7,74h-4.7l-8.6-28.6H429.6z"/>
	<path class="st5" d="M476.8,37.4c0.1,1.8-1.2,3.2-3.3,3.2c-1.8,0-3.1-1.4-3.1-3.2c0-1.8,1.4-3.2,3.2-3.2
		C475.5,34.2,476.8,35.6,476.8,37.4z M471,74V45.4h5.2V74H471z"/>
	<path class="st5" d="M509.5,32.1v34.5c0,2.5,0.1,5.4,0.2,7.4H505l-0.2-5h-0.1c-1.6,3.2-5.1,5.6-9.7,5.6c-6.9,0-12.2-5.8-12.2-14.5
		c-0.1-9.5,5.8-15.3,12.8-15.3c4.4,0,7.3,2.1,8.6,4.4h0.1V32.1H509.5z M504.3,57.1c0-0.6-0.1-1.5-0.2-2.2c-0.8-3.3-3.6-6-7.5-6
		c-5.4,0-8.6,4.7-8.6,11c0,5.8,2.8,10.6,8.4,10.6c3.5,0,6.7-2.3,7.6-6.2c0.2-0.7,0.2-1.4,0.2-2.2V57.1z"/>
	<path class="st5" d="M521,60.7c0.1,7,4.6,9.9,9.8,9.9c3.7,0,6-0.6,7.9-1.5l0.9,3.7c-1.8,0.8-5,1.8-9.5,1.8c-8.8,0-14-5.8-14-14.4
		c0-8.6,5.1-15.4,13.4-15.4c9.3,0,11.8,8.2,11.8,13.5c0,1.1-0.1,1.9-0.2,2.4H521z M536.2,56.9c0.1-3.3-1.4-8.4-7.2-8.4
		c-5.3,0-7.6,4.8-8,8.4H536.2z"/>
</g>
<g class="st4">
	<path class="st5" d="M114,143.7c1-0.2,2.4-0.3,4.2-0.3c2.1,0,3.7,0.5,4.7,1.4c0.9,0.8,1.5,2,1.5,3.5c0,1.5-0.4,2.7-1.3,3.6
		c-1.1,1.2-3,1.8-5.1,1.8c-0.6,0-1.2,0-1.7-0.1v6.7H114V143.7z M116.2,151.8c0.5,0.1,1.1,0.2,1.8,0.2c2.6,0,4.2-1.3,4.2-3.6
		c0-2.2-1.6-3.3-4-3.3c-0.9,0-1.7,0.1-2,0.2V151.8z"/>
	<path class="st5" d="M126.8,152c0-1.4,0-2.6-0.1-3.8h1.9l0.1,2.4h0.1c0.5-1.6,1.9-2.6,3.3-2.6c0.2,0,0.4,0,0.6,0.1v2.1
		c-0.2,0-0.4-0.1-0.7-0.1c-1.5,0-2.6,1.2-2.9,2.8c-0.1,0.3-0.1,0.7-0.1,1v6.4h-2.2V152z"/>
	<path class="st5" d="M145.7,154.2c0,4.5-3.1,6.4-6,6.4c-3.3,0-5.8-2.4-5.8-6.2c0-4,2.6-6.4,6-6.4
		C143.4,148,145.7,150.5,145.7,154.2z M136.1,154.3c0,2.6,1.5,4.6,3.7,4.6c2.1,0,3.7-2,3.7-4.7c0-2-1-4.6-3.6-4.6
		C137.2,149.6,136.1,152,136.1,154.3z"/>
	<path class="st5" d="M148.5,142.6h2.2v7.5h0.1c0.3-0.6,0.9-1.2,1.6-1.5c0.6-0.4,1.4-0.6,2.2-0.6c1.6,0,4.2,1,4.2,5.2v7.2h-2.2v-6.9
		c0-1.9-0.7-3.6-2.8-3.6c-1.4,0-2.5,1-2.9,2.2c-0.1,0.3-0.1,0.6-0.1,1v7.3h-2.2V142.6z"/>
	<path class="st5" d="M164.8,144.9c0,0.8-0.5,1.3-1.4,1.3c-0.8,0-1.3-0.6-1.3-1.3c0-0.8,0.6-1.4,1.4-1.4
		C164.3,143.5,164.8,144.1,164.8,144.9z M162.4,160.4v-12.1h2.2v12.1H162.4z"/>
	<path class="st5" d="M168.1,160.4c0-0.8,0.1-2,0.1-3.1v-14.6h2.2v7.6h0c0.8-1.3,2.2-2.2,4.1-2.2c3,0,5.1,2.5,5.1,6.2
		c0,4.3-2.7,6.5-5.4,6.5c-1.7,0-3.1-0.7-4-2.3h-0.1l-0.1,2H168.1z M170.4,155.5c0,0.3,0,0.5,0.1,0.8c0.4,1.5,1.7,2.6,3.3,2.6
		c2.3,0,3.7-1.9,3.7-4.6c0-2.4-1.2-4.5-3.6-4.5c-1.5,0-2.9,1-3.3,2.7c0,0.2-0.1,0.5-0.1,0.9V155.5z"/>
	<path class="st5" d="M184.9,144.9c0,0.8-0.5,1.3-1.4,1.3c-0.8,0-1.3-0.6-1.3-1.3c0-0.8,0.6-1.4,1.4-1.4
		C184.4,143.5,184.9,144.1,184.9,144.9z M182.4,160.4v-12.1h2.2v12.1H182.4z"/>
	<path class="st5" d="M190.9,144.8v3.5h3.1v1.7h-3.1v6.5c0,1.5,0.4,2.3,1.6,2.3c0.6,0,1-0.1,1.3-0.1l0.1,1.6
		c-0.4,0.2-1.1,0.3-1.9,0.3c-1,0-1.8-0.3-2.4-0.9c-0.6-0.6-0.9-1.7-0.9-3.1v-6.6h-1.9v-1.7h1.9v-2.9L190.9,144.8z"/>
	<path class="st5" d="M197.6,154.7c0,3,1.9,4.2,4.1,4.2c1.6,0,2.5-0.3,3.3-0.6l0.4,1.6c-0.8,0.3-2.1,0.8-4,0.8
		c-3.7,0-5.9-2.4-5.9-6.1s2.1-6.5,5.7-6.5c3.9,0,5,3.5,5,5.7c0,0.5,0,0.8-0.1,1H197.6z M204.1,153.1c0-1.4-0.6-3.6-3-3.6
		c-2.2,0-3.2,2-3.4,3.6H204.1z"/>
	<path class="st5" d="M219.4,142.6v14.6c0,1.1,0,2.3,0.1,3.1h-2l-0.1-2.1h0c-0.7,1.3-2.1,2.4-4.1,2.4c-2.9,0-5.2-2.5-5.2-6.1
		c0-4,2.5-6.5,5.4-6.5c1.8,0,3.1,0.9,3.6,1.8h0.1v-7.2H219.4z M217.2,153.2c0-0.3,0-0.7-0.1-0.9c-0.3-1.4-1.5-2.5-3.2-2.5
		c-2.3,0-3.6,2-3.6,4.7c0,2.4,1.2,4.5,3.6,4.5c1.5,0,2.8-1,3.2-2.6c0.1-0.3,0.1-0.6,0.1-1V153.2z"/>
</g>
<g class="st4">
	<path class="st5" d="M113.8,190.4c0-0.8,0.1-2,0.1-3.1v-14.6h2.2v7.6h0c0.8-1.3,2.2-2.2,4.1-2.2c3,0,5.1,2.5,5.1,6.2
		c0,4.3-2.7,6.5-5.4,6.5c-1.7,0-3.1-0.7-4-2.3h-0.1l-0.1,2H113.8z M116.1,185.5c0,0.3,0,0.5,0.1,0.8c0.4,1.5,1.7,2.6,3.3,2.6
		c2.3,0,3.7-1.9,3.7-4.6c0-2.4-1.2-4.5-3.6-4.5c-1.5,0-2.9,1-3.3,2.7c0,0.2-0.1,0.5-0.1,0.9V185.5z"/>
	<path class="st5" d="M128.8,178.3l2.6,7.1c0.3,0.8,0.6,1.8,0.8,2.5h0.1c0.2-0.7,0.5-1.6,0.8-2.5l2.4-7.1h2.3l-3.3,8.6
		c-1.6,4.1-2.6,6.3-4.1,7.6c-1.1,1-2.1,1.3-2.7,1.4l-0.5-1.8c0.5-0.2,1.3-0.5,1.9-1.1c0.6-0.5,1.3-1.3,1.8-2.4
		c0.1-0.2,0.2-0.4,0.2-0.5s0-0.3-0.1-0.6l-4.5-11.1H128.8z"/>
	<path class="st5" d="M145.1,172.6h2.2v17.7h-2.2V172.6z"/>
	<path class="st5" d="M157.7,190.4l-0.2-1.5h-0.1c-0.7,0.9-2,1.8-3.7,1.8c-2.4,0-3.7-1.7-3.7-3.5c0-2.9,2.6-4.5,7.3-4.5v-0.2
		c0-1-0.3-2.8-2.7-2.8c-1.1,0-2.3,0.3-3.1,0.9l-0.5-1.4c1-0.7,2.4-1.1,4-1.1c3.7,0,4.6,2.5,4.6,4.9v4.5c0,1,0.1,2.1,0.2,2.9H157.7z
		 M157.3,184.2c-2.4,0-5.1,0.4-5.1,2.7c0,1.4,0.9,2.1,2.1,2.1c1.6,0,2.6-1,2.9-2c0.1-0.2,0.1-0.5,0.1-0.7V184.2z"/>
	<path class="st5" d="M163.7,178.3l1.6,6.1c0.4,1.3,0.7,2.6,0.9,3.8h0.1c0.3-1.2,0.7-2.5,1.1-3.8l2-6.2h1.8l1.9,6
		c0.5,1.5,0.8,2.7,1.1,3.9h0.1c0.2-1.2,0.5-2.5,0.9-3.9l1.7-6.1h2.2l-3.9,12.1h-2l-1.8-5.8c-0.4-1.3-0.8-2.5-1.1-4h0
		c-0.3,1.5-0.7,2.7-1.1,4l-1.9,5.7h-2l-3.6-12.1H163.7z"/>
</g>
<g class="st4">
	<path class="st5" d="M342.7,157.7c1,0.6,2.4,1.1,3.9,1.1c2.2,0,3.5-1.2,3.5-2.9c0-1.6-0.9-2.5-3.2-3.3c-2.7-1-4.4-2.4-4.4-4.8
		c0-2.6,2.2-4.6,5.4-4.6c1.7,0,3,0.4,3.7,0.8l-0.6,1.8c-0.5-0.3-1.7-0.8-3.2-0.8c-2.3,0-3.2,1.4-3.2,2.5c0,1.6,1,2.3,3.3,3.2
		c2.8,1.1,4.3,2.5,4.3,4.9c0,2.6-1.9,4.8-5.9,4.8c-1.6,0-3.4-0.5-4.3-1.1L342.7,157.7z"/>
	<path class="st5" d="M357.8,144.8v3.5h3.1v1.7h-3.1v6.5c0,1.5,0.4,2.3,1.6,2.3c0.6,0,1-0.1,1.3-0.1l0.1,1.6
		c-0.4,0.2-1.1,0.3-1.9,0.3c-1,0-1.8-0.3-2.4-0.9c-0.6-0.6-0.9-1.7-0.9-3.1v-6.6h-1.9v-1.7h1.9v-2.9L357.8,144.8z"/>
	<path class="st5" d="M370.2,160.4l-0.2-1.5h-0.1c-0.7,0.9-2,1.8-3.7,1.8c-2.4,0-3.7-1.7-3.7-3.5c0-2.9,2.6-4.5,7.3-4.5v-0.2
		c0-1-0.3-2.8-2.7-2.8c-1.1,0-2.3,0.3-3.1,0.9l-0.5-1.4c1-0.7,2.4-1.1,4-1.1c3.7,0,4.6,2.5,4.6,4.9v4.5c0,1,0.1,2.1,0.2,2.9H370.2z
		 M369.8,154.2c-2.4,0-5.1,0.4-5.1,2.7c0,1.4,0.9,2.1,2.1,2.1c1.6,0,2.6-1,2.9-2c0.1-0.2,0.1-0.5,0.1-0.7V154.2z"/>
	<path class="st5" d="M378.1,144.8v3.5h3.1v1.7h-3.1v6.5c0,1.5,0.4,2.3,1.6,2.3c0.6,0,1-0.1,1.3-0.1l0.1,1.6
		c-0.4,0.2-1.1,0.3-1.9,0.3c-1,0-1.8-0.3-2.4-0.9c-0.6-0.6-0.9-1.7-0.9-3.1v-6.6H374v-1.7h1.9v-2.9L378.1,144.8z"/>
	<path class="st5" d="M384.8,154.7c0,3,1.9,4.2,4.1,4.2c1.6,0,2.5-0.3,3.3-0.6l0.4,1.6c-0.8,0.3-2.1,0.8-4,0.8
		c-3.7,0-5.9-2.4-5.9-6.1s2.1-6.5,5.7-6.5c3.9,0,5,3.5,5,5.7c0,0.5,0,0.8-0.1,1H384.8z M391.2,153.1c0-1.4-0.6-3.6-3-3.6
		c-2.2,0-3.2,2-3.4,3.6H391.2z"/>
	<path class="st5" d="M401.4,142.6h2.2v17.7h-2.2V142.6z"/>
	<path class="st5" d="M414,160.4l-0.2-1.5h-0.1c-0.7,0.9-2,1.8-3.7,1.8c-2.4,0-3.7-1.7-3.7-3.5c0-2.9,2.6-4.5,7.3-4.5v-0.2
		c0-1-0.3-2.8-2.7-2.8c-1.1,0-2.3,0.3-3.1,0.9l-0.5-1.4c1-0.7,2.4-1.1,4-1.1c3.7,0,4.6,2.5,4.6,4.9v4.5c0,1,0.1,2.1,0.2,2.9H414z
		 M413.6,154.2c-2.4,0-5.1,0.4-5.1,2.7c0,1.4,0.9,2.1,2.1,2.1c1.6,0,2.6-1,2.9-2c0.1-0.2,0.1-0.5,0.1-0.7V154.2z"/>
	<path class="st5" d="M420,148.3l1.6,6.1c0.4,1.3,0.7,2.6,0.9,3.8h0.1c0.3-1.2,0.7-2.5,1.1-3.8l2-6.2h1.8l1.9,6
		c0.5,1.5,0.8,2.7,1.1,3.9h0.1c0.2-1.2,0.5-2.5,0.9-3.9l1.7-6.1h2.2l-3.9,12.1h-2l-1.8-5.8c-0.4-1.3-0.8-2.5-1.1-4h0
		c-0.3,1.5-0.7,2.7-1.1,4l-1.9,5.7h-2l-3.6-12.1H420z"/>
</g>
<g class="st4">
	<path class="st5" d="M353.1,187.1c0,1.2,0,2.3,0.1,3.3h-1.9l-0.1-2H351c-0.6,1-1.8,2.2-4,2.2c-1.9,0-4.2-1-4.2-5.3v-7.1h2.2v6.7
		c0,2.3,0.7,3.8,2.7,3.8c1.5,0,2.5-1,2.9-2c0.1-0.3,0.2-0.7,0.2-1.1v-7.4h2.2V187.1z"/>
	<path class="st5" d="M356.7,181.5c0-1.2,0-2.3-0.1-3.3h1.9l0.1,2h0c0.6-1.1,2-2.3,4-2.3c1.7,0,4.3,1,4.3,5.1v7.2h-2.2v-7
		c0-1.9-0.7-3.6-2.8-3.6c-1.4,0-2.6,1-2.9,2.2c-0.1,0.3-0.1,0.6-0.1,1v7.3h-2.2V181.5z"/>
	<path class="st5" d="M379.2,189.9c-0.6,0.3-1.8,0.7-3.5,0.7c-3.6,0-6-2.5-6-6.2c0-3.7,2.5-6.4,6.5-6.4c1.3,0,2.4,0.3,3,0.6
		l-0.5,1.7c-0.5-0.3-1.3-0.6-2.5-0.6c-2.8,0-4.3,2-4.3,4.6c0,2.8,1.8,4.5,4.2,4.5c1.2,0,2.1-0.3,2.7-0.6L379.2,189.9z"/>
	<path class="st5" d="M381.8,172.6h2.2v17.7h-2.2V172.6z"/>
	<path class="st5" d="M388.9,184.7c0,3,1.9,4.2,4.1,4.2c1.6,0,2.5-0.3,3.3-0.6l0.4,1.6c-0.8,0.3-2.1,0.8-4,0.8
		c-3.7,0-5.9-2.4-5.9-6.1s2.1-6.5,5.7-6.5c3.9,0,5,3.5,5,5.7c0,0.5,0,0.8-0.1,1H388.9z M395.4,183.1c0-1.4-0.6-3.6-3-3.6
		c-2.2,0-3.2,2-3.4,3.6H395.4z"/>
	<path class="st5" d="M406.9,190.4l-0.2-1.5h-0.1c-0.7,0.9-2,1.8-3.7,1.8c-2.4,0-3.7-1.7-3.7-3.5c0-2.9,2.6-4.5,7.3-4.5v-0.2
		c0-1-0.3-2.8-2.7-2.8c-1.1,0-2.3,0.3-3.1,0.9l-0.5-1.4c1-0.7,2.4-1.1,4-1.1c3.7,0,4.6,2.5,4.6,4.9v4.5c0,1,0.1,2.1,0.2,2.9H406.9z
		 M406.6,184.2c-2.4,0-5.1,0.4-5.1,2.7c0,1.4,0.9,2.1,2.1,2.1c1.6,0,2.6-1,2.9-2c0.1-0.2,0.1-0.5,0.1-0.7V184.2z"/>
	<path class="st5" d="M412.3,182c0-1.4,0-2.6-0.1-3.8h1.9l0.1,2.4h0.1c0.5-1.6,1.9-2.6,3.3-2.6c0.2,0,0.4,0,0.6,0.1v2.1
		c-0.2,0-0.4-0.1-0.7-0.1c-1.5,0-2.6,1.2-2.9,2.8c-0.1,0.3-0.1,0.7-0.1,1v6.4h-2.2V182z"/>
</g>
<g class="st4">
	<path class="st5" d="M562.7,157.7c1,0.6,2.4,1.1,3.9,1.1c2.2,0,3.5-1.2,3.5-2.9c0-1.6-0.9-2.5-3.2-3.3c-2.8-1-4.4-2.4-4.4-4.8
		c0-2.6,2.2-4.6,5.4-4.6c1.7,0,3,0.4,3.7,0.8l-0.6,1.8c-0.5-0.3-1.7-0.8-3.2-0.8c-2.3,0-3.2,1.4-3.2,2.5c0,1.6,1,2.3,3.3,3.2
		c2.8,1.1,4.3,2.5,4.3,4.9c0,2.6-1.9,4.8-5.9,4.8c-1.6,0-3.4-0.5-4.3-1.1L562.7,157.7z"/>
	<path class="st5" d="M577.8,144.8v3.5h3.1v1.7h-3.1v6.5c0,1.5,0.4,2.3,1.7,2.3c0.6,0,1-0.1,1.3-0.1l0.1,1.6
		c-0.4,0.2-1.1,0.3-1.9,0.3c-1,0-1.8-0.3-2.4-0.9c-0.6-0.6-0.9-1.7-0.9-3.1v-6.6h-1.9v-1.7h1.9v-2.9L577.8,144.8z"/>
	<path class="st5" d="M590.2,160.4l-0.2-1.5h-0.1c-0.7,0.9-2,1.8-3.7,1.8c-2.4,0-3.7-1.7-3.7-3.5c0-2.9,2.6-4.5,7.3-4.5v-0.2
		c0-1-0.3-2.8-2.7-2.8c-1.1,0-2.3,0.3-3.1,0.9l-0.5-1.4c1-0.7,2.4-1.1,4-1.1c3.7,0,4.6,2.5,4.6,4.9v4.5c0,1,0.1,2.1,0.2,2.9H590.2z
		 M589.8,154.2c-2.4,0-5.1,0.4-5.1,2.7c0,1.4,1,2.1,2.1,2.1c1.6,0,2.6-1,2.9-2c0.1-0.2,0.1-0.5,0.1-0.7V154.2z"/>
	<path class="st5" d="M598.1,144.8v3.5h3.1v1.7h-3.1v6.5c0,1.5,0.4,2.3,1.6,2.3c0.6,0,1-0.1,1.3-0.1l0.1,1.6
		c-0.4,0.2-1.1,0.3-1.9,0.3c-1,0-1.8-0.3-2.4-0.9c-0.6-0.6-0.8-1.7-0.8-3.1v-6.6H594v-1.7h1.9v-2.9L598.1,144.8z"/>
	<path class="st5" d="M604.8,154.7c0,3,1.9,4.2,4.1,4.2c1.6,0,2.5-0.3,3.3-0.6l0.4,1.6c-0.8,0.3-2.1,0.8-4,0.8
		c-3.7,0-5.9-2.4-5.9-6.1s2.1-6.5,5.7-6.5c3.9,0,5,3.5,5,5.7c0,0.5,0,0.8-0.1,1H604.8z M611.2,153.1c0-1.4-0.6-3.6-3-3.6
		c-2.2,0-3.2,2-3.4,3.6H611.2z"/>
	<path class="st5" d="M621.4,142.6h2.2v17.7h-2.2V142.6z"/>
	<path class="st5" d="M634,160.4l-0.2-1.5h-0.1c-0.7,0.9-2,1.8-3.7,1.8c-2.4,0-3.7-1.7-3.7-3.5c0-2.9,2.6-4.5,7.3-4.5v-0.2
		c0-1-0.3-2.8-2.7-2.8c-1.1,0-2.3,0.3-3.1,0.9l-0.5-1.4c1-0.7,2.5-1.1,4-1.1c3.7,0,4.6,2.5,4.6,4.9v4.5c0,1,0,2.1,0.2,2.9H634z
		 M633.6,154.2c-2.4,0-5.1,0.4-5.1,2.7c0,1.4,1,2.1,2.1,2.1c1.6,0,2.6-1,2.9-2c0.1-0.2,0.1-0.5,0.1-0.7V154.2z"/>
	<path class="st5" d="M640,148.3l1.6,6.1c0.3,1.3,0.7,2.6,0.9,3.8h0.1c0.3-1.2,0.7-2.5,1.1-3.8l2-6.2h1.8l1.9,6
		c0.4,1.5,0.8,2.7,1.1,3.9h0.1c0.2-1.2,0.5-2.5,0.9-3.9l1.7-6.1h2.2l-3.9,12.1h-2l-1.8-5.8c-0.4-1.3-0.8-2.5-1.1-4h0
		c-0.3,1.5-0.7,2.7-1.1,4l-1.9,5.7h-2l-3.6-12.1H640z"/>
</g>
<g class="st4">
	<path class="st5" d="M569.6,190.4l-0.2-1.5h-0.1c-0.7,0.9-2,1.8-3.7,1.8c-2.4,0-3.7-1.7-3.7-3.5c0-2.9,2.6-4.5,7.3-4.5v-0.2
		c0-1-0.3-2.8-2.7-2.8c-1.1,0-2.3,0.3-3.1,0.9l-0.5-1.4c1-0.7,2.5-1.1,4-1.1c3.7,0,4.6,2.5,4.6,4.9v4.5c0,1,0,2.1,0.2,2.9H569.6z
		 M569.3,184.2c-2.4,0-5.1,0.4-5.1,2.7c0,1.4,1,2.1,2.1,2.1c1.6,0,2.6-1,2.9-2c0.1-0.2,0.1-0.5,0.1-0.7V184.2z"/>
	<path class="st5" d="M575,172.6h2.2v17.7H575V172.6z"/>
	<path class="st5" d="M580.9,172.6h2.2v17.7h-2.2V172.6z"/>
	<path class="st5" d="M597.7,184.2c0,4.5-3.1,6.4-6,6.4c-3.3,0-5.8-2.4-5.8-6.2c0-4,2.6-6.4,6-6.4
		C595.4,178,597.7,180.5,597.7,184.2z M588.1,184.3c0,2.6,1.5,4.6,3.7,4.6c2.1,0,3.7-2,3.7-4.7c0-2-1-4.6-3.6-4.6
		C589.3,179.6,588.1,182,588.1,184.3z"/>
	<path class="st5" d="M601.2,178.3l1.6,6.1c0.4,1.3,0.7,2.6,0.9,3.8h0.1c0.3-1.2,0.7-2.5,1.1-3.8l2-6.2h1.8l1.9,6
		c0.5,1.5,0.8,2.7,1.1,3.9h0.1c0.2-1.2,0.5-2.5,0.9-3.9l1.7-6.1h2.2l-3.9,12.1h-2l-1.8-5.8c-0.4-1.3-0.8-2.5-1.1-4h0
		c-0.3,1.5-0.7,2.7-1.1,4l-1.9,5.7h-2l-3.6-12.1H601.2z"/>
	<path class="st5" d="M618.3,188.1c0.6,0.4,1.8,0.9,2.9,0.9c1.6,0,2.3-0.8,2.3-1.8c0-1-0.6-1.6-2.2-2.2c-2.2-0.8-3.2-2-3.2-3.4
		c0-1.9,1.6-3.5,4.2-3.5c1.2,0,2.3,0.3,3,0.8l-0.5,1.6c-0.5-0.3-1.3-0.7-2.5-0.7c-1.3,0-2,0.8-2,1.6c0,1,0.7,1.5,2.3,2
		c2.1,0.8,3.2,1.8,3.2,3.6c0,2.1-1.7,3.6-4.5,3.6c-1.3,0-2.5-0.3-3.4-0.8L618.3,188.1z"/>
</g>
<g class="st4">
	<path class="st5" d="M783,143.5h2.2v15h7.2v1.8H783V143.5z"/>
	<path class="st5" d="M805.3,154.2c0,4.5-3.1,6.4-6,6.4c-3.3,0-5.8-2.4-5.8-6.2c0-4,2.6-6.4,6-6.4C803,148,805.3,150.5,805.3,154.2z
		 M795.7,154.3c0,2.6,1.5,4.6,3.7,4.6c2.1,0,3.7-2,3.7-4.7c0-2-1-4.6-3.6-4.6C796.9,149.6,795.7,152,795.7,154.3z"/>
	<path class="st5" d="M816.7,159.9c-0.6,0.3-1.8,0.7-3.5,0.7c-3.6,0-6-2.5-6-6.2c0-3.7,2.5-6.4,6.5-6.4c1.3,0,2.4,0.3,3,0.6
		l-0.5,1.7c-0.5-0.3-1.3-0.6-2.5-0.6c-2.8,0-4.3,2-4.3,4.6c0,2.8,1.8,4.5,4.2,4.5c1.2,0,2.1-0.3,2.7-0.6L816.7,159.9z"/>
	<path class="st5" d="M826,160.4l-0.2-1.5h-0.1c-0.7,0.9-2,1.8-3.7,1.8c-2.4,0-3.7-1.7-3.7-3.5c0-2.9,2.6-4.5,7.3-4.5v-0.2
		c0-1-0.3-2.8-2.7-2.8c-1.1,0-2.3,0.3-3.1,0.9l-0.5-1.4c1-0.7,2.4-1.1,4-1.1c3.7,0,4.6,2.5,4.6,4.9v4.5c0,1,0.1,2.1,0.2,2.9H826z
		 M825.7,154.2c-2.4,0-5.1,0.4-5.1,2.7c0,1.4,1,2.1,2.1,2.1c1.6,0,2.6-1,2.9-2c0.1-0.2,0.1-0.5,0.1-0.7V154.2z"/>
	<path class="st5" d="M831.4,142.6h2.2v17.7h-2.2V142.6z"/>
	<path class="st5" d="M842.6,142.6h2.2v17.7h-2.2V142.6z"/>
	<path class="st5" d="M855.2,160.4l-0.2-1.5h-0.1c-0.7,0.9-2,1.8-3.7,1.8c-2.4,0-3.7-1.7-3.7-3.5c0-2.9,2.6-4.5,7.3-4.5v-0.2
		c0-1-0.3-2.8-2.7-2.8c-1.1,0-2.3,0.3-3.1,0.9l-0.5-1.4c1-0.7,2.4-1.1,4-1.1c3.7,0,4.6,2.5,4.6,4.9v4.5c0,1,0,2.1,0.2,2.9H855.2z
		 M854.8,154.2c-2.4,0-5.1,0.4-5.1,2.7c0,1.4,0.9,2.1,2.1,2.1c1.6,0,2.6-1,2.9-2c0.1-0.2,0.1-0.5,0.1-0.7V154.2z"/>
	<path class="st5" d="M861.2,148.3l1.6,6.1c0.3,1.3,0.7,2.6,0.9,3.8h0.1c0.3-1.2,0.7-2.5,1.1-3.8l2-6.2h1.8l1.9,6
		c0.5,1.5,0.8,2.7,1.1,3.9h0.1c0.2-1.2,0.5-2.5,0.9-3.9l1.7-6.1h2.2l-3.9,12.1h-2l-1.8-5.8c-0.4-1.3-0.8-2.5-1.1-4h0
		c-0.3,1.5-0.7,2.7-1.1,4l-1.9,5.7h-2l-3.7-12.1H861.2z"/>
</g>
<g class="st4">
	<path class="st5" d="M789.6,190.4l-0.2-1.5h-0.1c-0.7,0.9-2,1.8-3.7,1.8c-2.4,0-3.7-1.7-3.7-3.5c0-2.9,2.6-4.5,7.3-4.5v-0.2
		c0-1-0.3-2.8-2.7-2.8c-1.1,0-2.3,0.3-3.1,0.9l-0.5-1.4c1-0.7,2.5-1.1,4-1.1c3.7,0,4.6,2.5,4.6,4.9v4.5c0,1,0,2.1,0.2,2.9H789.6z
		 M789.3,184.2c-2.4,0-5.1,0.4-5.1,2.7c0,1.4,1,2.1,2.1,2.1c1.6,0,2.6-1,2.9-2c0.1-0.2,0.1-0.5,0.1-0.7V184.2z"/>
	<path class="st5" d="M795,172.6h2.2v17.7H795V172.6z"/>
	<path class="st5" d="M800.9,172.6h2.2v17.7h-2.2V172.6z"/>
	<path class="st5" d="M817.7,184.2c0,4.5-3.1,6.4-6,6.4c-3.3,0-5.8-2.4-5.8-6.2c0-4,2.6-6.4,6-6.4
		C815.4,178,817.7,180.5,817.7,184.2z M808.1,184.3c0,2.6,1.5,4.6,3.7,4.6c2.1,0,3.7-2,3.7-4.7c0-2-1-4.6-3.6-4.6
		C809.3,179.6,808.1,182,808.1,184.3z"/>
	<path class="st5" d="M821.2,178.3l1.6,6.1c0.4,1.3,0.7,2.6,0.9,3.8h0.1c0.3-1.2,0.7-2.5,1.1-3.8l2-6.2h1.8l1.9,6
		c0.5,1.5,0.8,2.7,1.1,3.9h0.1c0.2-1.2,0.5-2.5,0.9-3.9l1.7-6.1h2.2l-3.9,12.1h-2l-1.8-5.8c-0.4-1.3-0.8-2.5-1.1-4h0
		c-0.3,1.5-0.7,2.7-1.1,4l-1.9,5.7h-2l-3.6-12.1H821.2z"/>
	<path class="st5" d="M838.3,188.1c0.6,0.4,1.8,0.9,2.9,0.9c1.6,0,2.3-0.8,2.3-1.8c0-1-0.6-1.6-2.2-2.2c-2.2-0.8-3.2-2-3.2-3.4
		c0-1.9,1.6-3.5,4.2-3.5c1.2,0,2.3,0.3,3,0.8l-0.5,1.6c-0.5-0.3-1.3-0.7-2.5-0.7c-1.3,0-2,0.8-2,1.6c0,1,0.7,1.5,2.3,2
		c2.1,0.8,3.2,1.8,3.2,3.6c0,2.1-1.7,3.6-4.5,3.6c-1.3,0-2.5-0.3-3.4-0.8L838.3,188.1z"/>
</g>
<g>
	<path class="st1" d="M121,348.6c0,5.5-4.5,10-10,10H20.8c-5.5,0-10-4.5-10-10v-90.1c0-5.5,4.5-10,10-10H111c5.5,0,10,4.5,10,10
		V348.6z"/>
</g>
<rect x="33.5" y="281.9" class="st6" width="64.8" height="43.2"/>
<g class="st4">
	<path class="st7" d="M46.2,309.3L42.4,321h-4.9L50,283.9h5.8L68.5,321h-5.1l-4-11.7H46.2z M58.4,305.6l-3.6-10.7
		c-0.8-2.4-1.4-4.6-1.9-6.8h-0.1c-0.5,2.2-1.2,4.5-1.9,6.7l-3.6,10.7H58.4z"/>
	<path class="st7" d="M73.9,283.9h4.8v33.1h15.8v4H73.9V283.9z"/>
</g>
<g>
	<path class="st2" d="M247.5,348.5c0,5.5-4.5,10-10,10h-90.1c-5.5,0-10-4.5-10-10v-90.1c0-5.5,4.5-10,10-10h90.1c5.5,0,10,4.5,10,10
		V348.5z"/>
</g>
<rect x="160" y="281.8" class="st6" width="64.8" height="43.2"/>
<g class="st4">
	<path class="st7" d="M170.9,309.2l-3.8,11.7h-4.9l12.6-37.1h5.8l12.6,37.1H188l-4-11.7H170.9z M183,305.5l-3.6-10.7
		c-0.8-2.4-1.4-4.6-1.9-6.8h-0.1c-0.5,2.2-1.2,4.5-1.9,6.7l-3.6,10.7H183z"/>
	<path class="st7" d="M198.6,283.8h4.8v17.9h0.2c1-1.4,2-2.8,2.9-4l11.3-13.9h5.9l-13.4,15.7l14.5,21.3h-5.7l-12.2-18.2l-3.5,4.1
		v14.1h-4.8V283.8z"/>
</g>
<g>
	<path class="st8" d="M374.1,348.7c0,5.5-4.5,10-10,10H274c-5.5,0-10-4.5-10-10v-90.1c0-5.5,4.5-10,10-10h90.1c5.5,0,10,4.5,10,10
		V348.7z"/>
</g>
<rect x="286.6" y="282" class="st6" width="64.8" height="43.2"/>
<g class="st4">
	<path class="st7" d="M297.2,309.4l-3.8,11.7h-4.9l12.6-37.1h5.8l12.6,37.1h-5.1l-4-11.7H297.2z M309.3,305.7l-3.6-10.7
		c-0.8-2.4-1.4-4.6-1.9-6.8h-0.1c-0.5,2.2-1.2,4.5-1.9,6.7l-3.6,10.7H309.3z"/>
	<path class="st7" d="M322.3,318.3l20.6-30.1V288H324v-4h25v2.9l-20.5,30v0.2h20.7v4h-27.1V318.3z"/>
</g>
<g>
	<path class="st2" d="M500.7,348.8c0,5.5-4.5,10-10,10h-90.1c-5.5,0-10-4.5-10-10v-90.1c0-5.5,4.5-10,10-10h90.1c5.5,0,10,4.5,10,10
		V348.8z"/>
</g>
<rect x="413.2" y="282.1" class="st6" width="64.8" height="43.2"/>
<g class="st4">
	<path class="st7" d="M424.1,309.5l-3.8,11.7h-4.9l12.6-37.1h5.8l12.6,37.1h-5.1l-4-11.7H424.1z M436.3,305.8l-3.6-10.7
		c-0.8-2.4-1.4-4.6-1.9-6.8h-0.1c-0.5,2.2-1.2,4.5-1.9,6.7l-3.6,10.7H436.3z"/>
	<path class="st7" d="M451.8,284.6c2.4-0.5,5.9-0.8,9.2-0.8c5.1,0,8.4,0.9,10.7,3c1.9,1.6,2.9,4.2,2.9,7c0,4.9-3.1,8.1-7,9.5v0.2
		c2.9,1,4.6,3.6,5.4,7.5c1.2,5.2,2.1,8.7,2.9,10.2H471c-0.6-1-1.4-4.2-2.5-8.9c-1.1-5.1-3.1-7-7.4-7.2h-4.5v16.1h-4.8V284.6z
		 M456.6,301.5h4.9c5.1,0,8.4-2.8,8.4-7c0-4.8-3.5-6.9-8.5-6.9c-2.3,0-4,0.2-4.7,0.4V301.5z"/>
</g>
<g>
	<path class="st2" d="M627.2,348.1c0,5.5-4.5,10-10,10h-90.1c-5.5,0-10-4.5-10-10V258c0-5.5,4.5-10,10-10h90.1c5.5,0,10,4.5,10,10
		V348.1z"/>
</g>
<rect x="534.6" y="282.8" class="st6" width="75.1" height="40.6"/>
<g class="st4">
	<path class="st7" d="M569.4,320.6c-1.8,0.9-5.3,1.8-9.8,1.8c-10.4,0-18.3-6.6-18.3-18.8c0-11.6,7.9-19.5,19.4-19.5
		c4.6,0,7.5,1,8.8,1.6l-1.2,3.9c-1.8-0.9-4.4-1.5-7.5-1.5c-8.7,0-14.5,5.6-14.5,15.3c0,9.1,5.2,14.9,14.2,14.9
		c2.9,0,5.9-0.6,7.8-1.5L569.4,320.6z"/>
	<path class="st7" d="M581.7,310.2l-3.8,11.7h-4.9l12.6-37.1h5.8l12.6,37.1h-5.1l-4-11.7H581.7z M593.8,306.4l-3.6-10.7
		c-0.8-2.4-1.4-4.6-1.9-6.8h-0.1c-0.5,2.2-1.2,4.5-1.9,6.7l-3.6,10.7H593.8z"/>
</g>
<g>
	<path class="st8" d="M753.8,348.3c0,5.5-4.5,10-10,10h-90.1c-5.5,0-10-4.5-10-10v-90.1c0-5.5,4.5-10,10-10h90.1c5.5,0,10,4.5,10,10
		V348.3z"/>
</g>
<rect x="661.2" y="282.5" class="st6" width="75.1" height="41.4"/>
<g class="st4">
	<path class="st7" d="M693.9,320.3c-1.8,0.9-5.3,1.8-9.8,1.8c-10.4,0-18.3-6.6-18.3-18.8c0-11.6,7.9-19.5,19.4-19.5
		c4.6,0,7.5,1,8.8,1.6l-1.2,3.9c-1.8-0.9-4.4-1.5-7.5-1.5c-8.7,0-14.5,5.6-14.5,15.3c0,9.1,5.2,14.9,14.2,14.9
		c2.9,0,5.9-0.6,7.8-1.5L693.9,320.3z"/>
	<path class="st7" d="M730.4,302.6c0,12.8-7.8,19.5-17.2,19.5c-9.8,0-16.7-7.6-16.7-18.8c0-11.8,7.3-19.5,17.2-19.5
		C723.9,283.8,730.4,291.6,730.4,302.6z M701.7,303.2c0,7.9,4.3,15,11.8,15c7.6,0,11.9-7,11.9-15.4c0-7.4-3.8-15.1-11.8-15.1
		C705.6,287.8,701.7,295.1,701.7,303.2z"/>
</g>
<g>
	<path class="st2" d="M880.3,348.4c0,5.5-4.5,10-10,10h-90.1c-5.5,0-10-4.5-10-10v-90.1c0-5.5,4.5-10,10-10h90.1c5.5,0,10,4.5,10,10
		V348.4z"/>
</g>
<rect x="787.7" y="282.6" class="st6" width="75.1" height="41.4"/>
<g class="st4">
	<path class="st7" d="M825.7,320.4c-1.8,0.9-5.3,1.8-9.8,1.8c-10.4,0-18.3-6.6-18.3-18.8c0-11.6,7.9-19.5,19.4-19.5
		c4.6,0,7.5,1,8.8,1.6l-1.2,3.9c-1.8-0.9-4.4-1.5-7.5-1.5c-8.7,0-14.5,5.6-14.5,15.3c0,9.1,5.2,14.9,14.2,14.9
		c2.9,0,5.9-0.6,7.8-1.5L825.7,320.4z"/>
	<path class="st7" d="M840.3,288.6H829v-4.1h27.4v4.1h-11.3v33h-4.8V288.6z"/>
</g>
<g>
	<path class="st0" d="M123,488.3c0,5.5-4.5,10-10,10H22.8c-5.5,0-10-4.5-10-10v-90.1c0-5.5,4.5-10,10-10H113c5.5,0,10,4.5,10,10
		V488.3z"/>
</g>
<rect x="31.5" y="422.9" class="st6" width="72.8" height="40.7"/>
<g class="st4">
	<path class="st7" d="M37.8,425.3c2.9-0.4,6.4-0.8,10.2-0.8c6.9,0,11.8,1.6,15,4.6c3.3,3,5.2,7.3,5.2,13.3c0,6-1.9,11-5.3,14.4
		c-3.5,3.5-9.2,5.3-16.4,5.3c-3.4,0-6.3-0.2-8.7-0.4V425.3z M42.6,458.1c1.2,0.2,3,0.3,4.8,0.3c10.2,0,15.8-5.7,15.8-15.7
		c0.1-8.7-4.9-14.3-15-14.3c-2.5,0-4.3,0.2-5.6,0.5V458.1z"/>
	<path class="st7" d="M100.3,460.7c-1.8,0.9-5.3,1.8-9.8,1.8c-10.4,0-18.3-6.6-18.3-18.8c0-11.6,7.9-19.5,19.4-19.5
		c4.6,0,7.5,1,8.8,1.6l-1.2,3.9c-1.8-0.9-4.4-1.5-7.5-1.5c-8.7,0-14.5,5.6-14.5,15.3c0,9.1,5.2,14.9,14.2,14.9
		c2.9,0,5.9-0.6,7.8-1.5L100.3,460.7z"/>
</g>
<g>
	<path class="st2" d="M249.2,489.2c0,5.5-4.5,10-10,10H149c-5.5,0-10-4.5-10-10V399c0-5.5,4.5-10,10-10h90.1c5.5,0,10,4.5,10,10
		L249.2,489.2L249.2,489.2z"/>
</g>
<rect x="161.7" y="422.5" class="st6" width="64.8" height="43.2"/>
<g class="st4">
	<path class="st7" d="M166.5,425c2.9-0.4,6.4-0.8,10.2-0.8c6.9,0,11.8,1.6,15,4.6c3.3,3,5.2,7.3,5.2,13.3c0,6-1.9,11-5.3,14.4
		c-3.5,3.5-9.2,5.3-16.4,5.3c-3.4,0-6.3-0.2-8.7-0.4V425z M171.2,457.8c1.2,0.2,3,0.3,4.8,0.3c10.2,0,15.8-5.7,15.8-15.7
		c0.1-8.7-4.9-14.3-15-14.3c-2.5,0-4.3,0.2-5.6,0.5V457.8z"/>
	<path class="st7" d="M222.3,444.2h-14.4v13.4h16.1v4h-20.8v-37.1h20v4h-15.2v11.7h14.4V444.2z"/>
</g>
<g>
	<path class="st8" d="M375.4,489.6c0,5.5-4.5,10-10,10h-90.1c-5.5,0-10-4.5-10-10v-90.1c0-5.5,4.5-10,10-10h90.1c5.5,0,10,4.5,10,10
		V489.6z"/>
</g>
<rect x="287.9" y="423" class="st6" width="64.8" height="43.2"/>
<g class="st4">
	<path class="st7" d="M298.2,424.9h20v4h-15.2v12.3h14v4h-14V462h-4.8V424.9z"/>
	<path class="st7" d="M324.9,424.9h4.8V458h15.8v4h-20.6V424.9z"/>
</g>
<g>
	<path class="st3" d="M501.7,490.1c0,5.5-4.5,10-10,10h-90.1c-5.5,0-10-4.5-10-10V400c0-5.5,4.5-10,10-10h90.1c5.5,0,10,4.5,10,10
		V490.1z"/>
</g>
<rect x="409" y="420" class="st6" width="75.1" height="50.1"/>
<g class="st4">
	<path class="st7" d="M444.4,457.4c-2.1,0.8-6.4,2-11.4,2c-5.6,0-10.2-1.4-13.9-4.9c-3.2-3.1-5.2-8-5.2-13.8
		c0.1-11.1,7.6-19.1,20.1-19.1c4.3,0,7.6,0.9,9.2,1.7l-1.2,3.9c-2-0.9-4.5-1.6-8.2-1.6c-9,0-14.9,5.6-14.9,14.9
		c0,9.4,5.7,15,14.3,15c3.1,0,5.3-0.4,6.4-1v-11.1h-7.5v-3.8h12.2V457.4z"/>
	<path class="st7" d="M457.7,447.4l-3.8,11.7h-4.9l12.6-37.1h5.8l12.6,37.1h-5.1l-4-11.7H457.7z M469.8,443.6l-3.6-10.7
		c-0.8-2.4-1.4-4.6-1.9-6.8h-0.1c-0.5,2.2-1.2,4.5-1.9,6.7l-3.6,10.7H469.8z"/>
</g>
<g>
	<path class="st1" d="M627.9,488.7c0,5.5-4.5,10-10,10h-90.1c-5.5,0-10-4.5-10-10v-90.1c0-5.5,4.5-10,10-10h90.1c5.5,0,10,4.5,10,10
		V488.7z"/>
</g>
<rect x="535.3" y="422.9" class="st6" width="75.1" height="41.6"/>
<g class="st4">
	<path class="st7" d="M557.3,424.9v15.5h17.9v-15.5h4.8v37.1h-4.8v-17.4h-17.9v17.4h-4.8v-37.1H557.3z"/>
	<path class="st7" d="M593.1,424.9v37.1h-4.8v-37.1H593.1z"/>
</g>
<g>
	<path class="st8" d="M754.1,490.5c0,5.5-4.5,10-10,10H654c-5.5,0-10-4.5-10-10v-90.1c0-5.5,4.5-10,10-10h90.1c5.5,0,10,4.5,10,10
		V490.5z"/>
</g>
<rect x="661.5" y="420.4" class="st6" width="75.1" height="50.1"/>
<g class="st4">
	<path class="st7" d="M683.1,422.4v37.1h-4.8v-37.1H683.1z"/>
	<path class="st7" d="M691.5,422.9c2.9-0.4,6.4-0.8,10.2-0.8c6.9,0,11.8,1.6,15,4.6c3.3,3,5.2,7.3,5.2,13.3c0,6-1.9,11-5.3,14.4
		c-3.5,3.5-9.2,5.3-16.4,5.3c-3.4,0-6.3-0.2-8.7-0.4V422.9z M696.3,455.7c1.2,0.2,3,0.3,4.8,0.3c10.2,0,15.8-5.7,15.8-15.7
		c0.1-8.7-4.9-14.3-15-14.3c-2.5,0-4.3,0.2-5.6,0.5V455.7z"/>
</g>
<g>
	<path class="st3" d="M880.3,487.9c0,5.5-4.5,10-10,10h-90.1c-5.5,0-10-4.5-10-10v-90.1c0-5.5,4.5-10,10-10h90.1c5.5,0,10,4.5,10,10
		V487.9z"/>
</g>
<rect x="787.7" y="423.1" class="st6" width="75.1" height="39.4"/>
<g class="st4">
	<path class="st7" d="M814.7,425.1v37.1h-4.8v-37.1H814.7z"/>
	<path class="st7" d="M823,425.1h4.8v33.1h15.8v4H823V425.1z"/>
</g>
<g>
	<path class="st3" d="M121,628.3c0,5.5-4.5,10-10,10H20.8c-5.5,0-10-4.5-10-10v-90.1c0-5.5,4.5-10,10-10H111c5.5,0,10,4.5,10,10
		V628.3z"/>
</g>
<rect x="33.5" y="561.7" class="st6" width="64.8" height="43.2"/>
<g class="st4">
	<path class="st7" d="M50.2,563.6v37.1h-4.8v-37.1H50.2z"/>
	<path class="st7" d="M58.5,600.7v-37.1h5.2l11.9,18.8c2.7,4.3,4.9,8.2,6.7,12l0.1-0.1c-0.4-4.9-0.5-9.5-0.5-15.2v-15.5h4.5v37.1
		h-4.8l-11.8-18.8c-2.6-4.1-5.1-8.4-6.9-12.4l-0.2,0.1c0.3,4.7,0.4,9.1,0.4,15.3v15.8H58.5z"/>
</g>
<g>
	<path class="st3" d="M248,628.5c0,5.5-4.5,10-10,10h-90.1c-5.5,0-10-4.5-10-10v-90.1c0-5.5,4.5-10,10-10H238c5.5,0,10,4.5,10,10
		V628.5z"/>
</g>
<rect x="160.5" y="561.8" class="st6" width="64.8" height="43.2"/>
<g class="st4">
	<path class="st7" d="M178.5,563.8v37.1h-4.8v-37.1H178.5z"/>
	<path class="st7" d="M192.8,589.2l-3.8,11.7H184l12.6-37.1h5.8l12.6,37.1h-5.1l-4-11.7H192.8z M205,585.5l-3.6-10.7
		c-0.8-2.4-1.4-4.6-1.9-6.8h-0.1c-0.5,2.2-1.2,4.5-1.9,6.7l-3.6,10.7H205z"/>
</g>
<g>
	<path class="st8" d="M375,628.6c0,5.5-4.5,10-10,10h-90.1c-5.5,0-10-4.5-10-10v-90.1c0-5.5,4.5-10,10-10H365c5.5,0,10,4.5,10,10
		V628.6z"/>
</g>
<rect x="287.5" y="562" class="st6" width="64.8" height="43.2"/>
<g class="st4">
	<path class="st7" d="M295.6,564h4.8v17.9h0.2c1-1.4,2-2.8,2.9-4l11.3-13.9h5.9l-13.4,15.7l14.5,21.3h-5.7l-12.2-18.2l-3.5,4.1V601
		h-4.8V564z"/>
	<path class="st7" d="M324.8,595.2c2.1,1.3,5.3,2.4,8.6,2.4c4.9,0,7.8-2.6,7.8-6.3c0-3.5-2-5.4-7-7.4c-6-2.1-9.8-5.3-9.8-10.5
		c0-5.8,4.8-10.1,12-10.1c3.8,0,6.5,0.9,8.2,1.8l-1.3,3.9c-1.2-0.7-3.7-1.8-7-1.8c-5.1,0-7,3-7,5.6c0,3.5,2.3,5.2,7.4,7.1
		c6.3,2.4,9.5,5.4,9.5,10.9c0,5.7-4.2,10.7-13,10.7c-3.6,0-7.5-1-9.5-2.4L324.8,595.2z"/>
</g>
<g>
	<path class="st2" d="M502,628.8c0,5.5-4.5,10-10,10h-90.1c-5.5,0-10-4.5-10-10v-90.1c0-5.5,4.5-10,10-10H492c5.5,0,10,4.5,10,10
		V628.8z"/>
</g>
<rect x="414.5" y="562.1" class="st6" width="64.8" height="43.2"/>
<g class="st4">
	<path class="st7" d="M421.3,564.1h4.8V582h0.2c1-1.4,2-2.8,2.9-4l11.3-13.9h5.9L433,579.8l14.5,21.3h-5.7L429.6,583l-3.5,4.1v14.1
		h-4.8V564.1z"/>
	<path class="st7" d="M459,601.2v-15.7l-11.7-21.3h5.4l5.2,10.2c1.4,2.8,2.5,5.1,3.7,7.6h0.1c1-2.4,2.3-4.8,3.7-7.6l5.3-10.2h5.4
		l-12.4,21.3v15.8H459z"/>
</g>
<g>
	<path class="st2" d="M629,627.9c0,5.5-4.5,10-10,10h-90.1c-5.5,0-10-4.5-10-10v-90.1c0-5.5,4.5-10,10-10H619c5.5,0,10,4.5,10,10
		V627.9z"/>
</g>
<rect x="536.4" y="563.1" class="st6" width="75.1" height="39.4"/>
<g class="st4">
	<path class="st7" d="M548.3,565.1h4.8v33.1h15.8v4h-20.6V565.1z"/>
	<path class="st7" d="M580.3,590.5l-3.8,11.7h-4.9l12.6-37.1h5.8l12.6,37.1h-5.1l-4-11.7H580.3z M592.4,586.7l-3.6-10.7
		c-0.8-2.4-1.4-4.6-1.9-6.8h-0.1c-0.5,2.2-1.2,4.5-1.9,6.7l-3.6,10.7H592.4z"/>
</g>
<g>
	<path class="st8" d="M756,628c0,5.5-4.5,10-10,10h-90.1c-5.5,0-10-4.5-10-10v-90.1c0-5.5,4.5-10,10-10H746c5.5,0,10,4.5,10,10V628z
		"/>
</g>
<rect x="663.4" y="562.7" class="st6" width="75.1" height="40.6"/>
<g class="st4">
	<path class="st7" d="M700.7,585.4c-0.3-5.2-0.6-11.4-0.5-16H700c-1.3,4.3-2.8,9-4.7,14.1l-6.5,18h-3.6l-6-17.7
		c-1.8-5.2-3.2-10-4.3-14.4h-0.1c-0.1,4.6-0.4,10.8-0.7,16.4l-1,15.9h-4.6l2.6-37.1h6.1l6.3,17.9c1.5,4.6,2.8,8.6,3.7,12.5h0.2
		c0.9-3.7,2.3-7.8,3.9-12.5l6.6-17.9h6.1l2.3,37.1h-4.7L700.7,585.4z"/>
	<path class="st7" d="M732.9,584.3h-14.4v13.4h16.1v4h-20.8v-37.1h20v4h-15.2v11.7h14.4V584.3z"/>
</g>
<g>
	<path class="st2" d="M883,628.2c0,5.5-4.5,10-10,10h-90.1c-5.5,0-10-4.5-10-10V538c0-5.5,4.5-10,10-10H873c5.5,0,10,4.5,10,10
		V628.2z"/>
</g>
<rect x="785" y="562.8" class="st6" width="85.8" height="40.6"/>
<g class="st4">
	<path class="st7" d="M822.9,585.6c-0.3-5.2-0.6-11.4-0.5-16h-0.2c-1.3,4.3-2.8,9-4.7,14.1l-6.5,18h-3.6l-6-17.7
		c-1.8-5.2-3.2-10-4.3-14.4H797c-0.1,4.6-0.4,10.8-0.7,16.4l-1,15.9h-4.6l2.6-37.1h6.1l6.3,17.9c1.5,4.6,2.8,8.6,3.7,12.5h0.2
		c0.9-3.7,2.3-7.8,3.9-12.5l6.6-17.9h6.1l2.3,37.1h-4.7L822.9,585.6z"/>
	<path class="st7" d="M835.9,565.3c2.9-0.4,6.4-0.8,10.2-0.8c6.9,0,11.8,1.6,15,4.6c3.3,3,5.2,7.3,5.2,13.3c0,6-1.9,11-5.3,14.4
		c-3.5,3.5-9.2,5.3-16.4,5.3c-3.4,0-6.3-0.2-8.7-0.4V565.3z M840.7,598.1c1.2,0.2,3,0.3,4.8,0.3c10.2,0,15.8-5.7,15.8-15.7
		c0.1-8.7-4.9-14.3-15-14.3c-2.5,0-4.3,0.2-5.6,0.5V598.1z"/>
</g>
</svg>
